<svg xmlns="http://www.w3.org/2000/svg" xmlns:xlink="http://www.w3.org/1999/xlink" preserveAspectRatio="xMidYMid" width="128" height="128" viewBox="0 0 128 128">
  <defs>
    <style>
      .cls-1 {
        fill: #fff;
        fill-rule: evenodd;
      }
    </style>
  </defs>
  <path d="M126.167,68.399 L68.400,126.166 C65.965,128.602 62.017,128.602 59.581,126.166 L1.814,68.399 C-0.621,65.964 -0.621,62.015 1.814,59.580 L59.581,1.813 C62.017,-0.623 65.965,-0.623 68.400,1.813 L126.167,59.580 C128.603,62.015 128.603,65.964 126.167,68.399 ZM64.000,118.667 C66.209,118.667 68.000,116.876 68.000,114.667 C68.000,112.458 66.209,110.667 64.000,110.667 C61.791,110.667 60.000,112.458 60.000,114.667 C60.000,116.876 61.791,118.667 64.000,118.667 ZM64.000,9.333 C61.791,9.333 60.000,11.124 60.000,13.333 C60.000,15.542 61.791,17.333 64.000,17.333 C66.209,17.333 68.000,15.542 68.000,13.333 C68.000,11.124 66.209,9.333 64.000,9.333 ZM100.500,85.000 L91.097,85.000 C89.755,77.185 82.845,71.222 74.483,71.222 C72.488,71.222 70.574,71.562 68.799,72.185 L63.162,69.208 L63.162,48.445 C63.162,48.374 63.139,48.311 63.121,48.247 C66.230,48.175 68.729,45.688 68.729,42.624 C68.729,39.515 66.158,36.994 62.985,36.994 C59.812,36.994 57.240,39.515 57.240,42.624 C57.240,43.790 57.602,44.874 58.222,45.773 L44.259,45.773 C43.926,45.773 43.649,45.984 43.541,46.276 C43.353,46.296 43.190,46.381 43.101,46.532 L36.077,58.447 C35.908,58.733 36.069,59.133 36.436,59.340 L39.095,60.844 C39.462,61.051 39.896,60.987 40.065,60.701 L40.572,59.840 L45.046,62.202 L36.225,84.417 C36.146,84.616 36.151,84.820 36.209,85.000 L27.500,85.000 C26.672,85.000 26.000,85.672 26.000,86.500 C26.000,87.328 26.672,88.000 27.500,88.000 L100.500,88.000 C101.328,88.000 102.000,87.328 102.000,86.500 C102.000,85.672 101.328,85.000 100.500,85.000 ZM55.061,74.828 C55.060,74.824 55.063,74.819 55.062,74.815 L55.061,74.810 L55.061,74.780 C55.061,74.640 55.012,74.516 54.946,74.403 L52.624,66.205 L58.533,69.325 L58.533,70.964 C58.533,71.385 58.878,71.727 59.304,71.727 L62.390,71.727 C62.550,71.727 62.690,71.668 62.813,71.585 L66.182,73.364 C61.849,75.772 58.721,80.007 57.864,85.000 L55.061,85.000 L55.061,74.828 ZM58.533,54.415 L58.533,66.763 L52.981,63.831 L58.533,54.415 ZM41.724,57.887 L46.166,50.353 L51.670,50.353 L45.922,60.103 L41.724,57.887 ZM50.000,76.333 L50.000,85.000 L41.700,85.000 L48.058,68.661 L50.000,76.333 Z" class="cls-1"/>
</svg>
